<mxfile host="app.diagrams.net" modified="2024-02-03T09:13:04.157Z" agent="Mozilla/5.0 (Windows NT 10.0; Win64; x64) AppleWebKit/537.36 (KHTML, like Gecko) Chrome/120.0.0.0 Safari/537.36" etag="tAlIl8k94tFm1LAq9rd8" version="23.1.1" type="device">
  <diagram id="kgpKYQtTHZ0yAKxKKP6v" name="Page-1">
    <mxGraphModel dx="2968" dy="1816" grid="1" gridSize="10" guides="1" tooltips="1" connect="1" arrows="1" fold="1" page="1" pageScale="1" pageWidth="1169" pageHeight="827" math="0" shadow="0">
      <root>
        <mxCell id="0" />
        <mxCell id="1" parent="0" />
        <mxCell id="7rveW3KE9EC4lTejcIBZ-21" value="" style="rounded=0;whiteSpace=wrap;html=1;" vertex="1" parent="1">
          <mxGeometry x="-10" y="-2" width="1180" height="792" as="geometry" />
        </mxCell>
        <mxCell id="7rveW3KE9EC4lTejcIBZ-1" value="&lt;font style=&quot;font-size: 18px;&quot;&gt;Alpha DB&lt;/font&gt;" style="shape=cylinder3;whiteSpace=wrap;html=1;boundedLbl=1;backgroundOutline=1;size=15;fillColor=#fff2cc;strokeColor=#000033;strokeWidth=3;" vertex="1" parent="1">
          <mxGeometry x="840" y="120" width="100" height="110" as="geometry" />
        </mxCell>
        <mxCell id="7rveW3KE9EC4lTejcIBZ-2" value="&lt;font style=&quot;font-size: 18px;&quot;&gt;Beta DB&lt;/font&gt;" style="shape=cylinder3;whiteSpace=wrap;html=1;boundedLbl=1;backgroundOutline=1;size=15;fillColor=#fff2cc;strokeColor=#000033;strokeWidth=3;" vertex="1" parent="1">
          <mxGeometry x="840" y="310" width="100" height="110" as="geometry" />
        </mxCell>
        <mxCell id="7rveW3KE9EC4lTejcIBZ-5" value="&lt;font style=&quot;font-size: 14px;&quot;&gt;&lt;b&gt;System landscape&lt;/b&gt;&lt;/font&gt;" style="text;html=1;align=center;verticalAlign=middle;resizable=0;points=[];autosize=1;strokeColor=none;fillColor=none;" vertex="1" parent="1">
          <mxGeometry x="20" y="30" width="150" height="30" as="geometry" />
        </mxCell>
        <mxCell id="7rveW3KE9EC4lTejcIBZ-8" value="" style="endArrow=classic;startArrow=classic;html=1;rounded=0;entryX=0;entryY=0.5;entryDx=0;entryDy=0;entryPerimeter=0;exitX=1;exitY=0.25;exitDx=0;exitDy=0;strokeWidth=2;fillColor=#dae8fc;strokeColor=#6c8ebf;" edge="1" parent="1" source="7rveW3KE9EC4lTejcIBZ-12" target="7rveW3KE9EC4lTejcIBZ-1">
          <mxGeometry width="50" height="50" relative="1" as="geometry">
            <mxPoint x="310" y="280" as="sourcePoint" />
            <mxPoint x="360" y="230" as="targetPoint" />
          </mxGeometry>
        </mxCell>
        <mxCell id="7rveW3KE9EC4lTejcIBZ-9" value="" style="endArrow=classic;startArrow=classic;html=1;rounded=0;entryX=0;entryY=0.5;entryDx=0;entryDy=0;exitX=1;exitY=0.75;exitDx=0;exitDy=0;strokeWidth=2;fillColor=#dae8fc;strokeColor=#6c8ebf;" edge="1" parent="1" source="7rveW3KE9EC4lTejcIBZ-12" target="7rveW3KE9EC4lTejcIBZ-17">
          <mxGeometry width="50" height="50" relative="1" as="geometry">
            <mxPoint x="310" y="280" as="sourcePoint" />
            <mxPoint x="780" y="515" as="targetPoint" />
          </mxGeometry>
        </mxCell>
        <mxCell id="7rveW3KE9EC4lTejcIBZ-10" value="" style="endArrow=classic;startArrow=classic;html=1;rounded=0;entryX=0;entryY=0;entryDx=0;entryDy=52.5;entryPerimeter=0;exitX=1;exitY=0.25;exitDx=0;exitDy=0;strokeWidth=2;fillColor=#008a00;strokeColor=#005700;" edge="1" parent="1" source="7rveW3KE9EC4lTejcIBZ-13" target="7rveW3KE9EC4lTejcIBZ-1">
          <mxGeometry width="50" height="50" relative="1" as="geometry">
            <mxPoint x="310" y="480" as="sourcePoint" />
            <mxPoint x="360" y="430" as="targetPoint" />
          </mxGeometry>
        </mxCell>
        <mxCell id="7rveW3KE9EC4lTejcIBZ-11" value="" style="endArrow=classic;startArrow=classic;html=1;rounded=0;entryX=0;entryY=0.5;entryDx=0;entryDy=0;entryPerimeter=0;exitX=1;exitY=0.75;exitDx=0;exitDy=0;strokeWidth=2;fillColor=#008a00;strokeColor=#005700;" edge="1" parent="1" source="7rveW3KE9EC4lTejcIBZ-13" target="7rveW3KE9EC4lTejcIBZ-2">
          <mxGeometry width="50" height="50" relative="1" as="geometry">
            <mxPoint x="310" y="480" as="sourcePoint" />
            <mxPoint x="360" y="430" as="targetPoint" />
          </mxGeometry>
        </mxCell>
        <mxCell id="7rveW3KE9EC4lTejcIBZ-12" value="&lt;font style=&quot;font-size: 18px;&quot;&gt;First Application&lt;/font&gt;" style="rounded=1;whiteSpace=wrap;html=1;strokeWidth=3;" vertex="1" parent="1">
          <mxGeometry x="128" y="185" width="190" height="60" as="geometry" />
        </mxCell>
        <mxCell id="7rveW3KE9EC4lTejcIBZ-13" value="&lt;font style=&quot;font-size: 18px;&quot;&gt;Second Application&lt;/font&gt;" style="rounded=1;whiteSpace=wrap;html=1;strokeWidth=3;" vertex="1" parent="1">
          <mxGeometry x="128" y="385" width="190" height="60" as="geometry" />
        </mxCell>
        <mxCell id="7rveW3KE9EC4lTejcIBZ-17" value="&lt;font style=&quot;font-size: 18px;&quot;&gt;Hazelcast&lt;/font&gt;" style="rounded=1;whiteSpace=wrap;html=1;strokeWidth=3;labelBackgroundColor=none;fillColor=#94B4FF;" vertex="1" parent="1">
          <mxGeometry x="795" y="480" width="190" height="60" as="geometry" />
        </mxCell>
        <mxCell id="7rveW3KE9EC4lTejcIBZ-18" value="Docker" style="swimlane;whiteSpace=wrap;html=1;fontSize=18;startSize=40;rounded=1;" vertex="1" parent="1">
          <mxGeometry x="660" y="40" width="460" height="580" as="geometry" />
        </mxCell>
      </root>
    </mxGraphModel>
  </diagram>
</mxfile>
